<mxfile host="65bd71144e">
    <diagram name="Page-1" id="b426aELSeM76tzW_q8hJ">
        <mxGraphModel dx="610" dy="607" grid="1" gridSize="10" guides="1" tooltips="1" connect="1" arrows="1" fold="1" page="1" pageScale="1" pageWidth="850" pageHeight="1100" math="0" shadow="0">
            <root>
                <mxCell id="0"/>
                <mxCell id="1" parent="0"/>
                <mxCell id="wOB_5UVZatr3jlE8OmUu-1" value="Help Desk Ticketing System" style="swimlane;whiteSpace=wrap;html=1;startSize=30;fontSize=14;" parent="1" vertex="1">
                    <mxGeometry x="710" y="20" width="320" height="490" as="geometry"/>
                </mxCell>
                <mxCell id="wOB_5UVZatr3jlE8OmUu-15" value="&lt;b&gt;&lt;font style=&quot;font-size: 14px;&quot;&gt;Register&lt;/font&gt;&lt;/b&gt;" style="ellipse;whiteSpace=wrap;html=1;fillColor=#ffe6cc;strokeColor=#d79b00;" parent="wOB_5UVZatr3jlE8OmUu-1" vertex="1">
                    <mxGeometry x="70" y="40" width="170" height="70" as="geometry"/>
                </mxCell>
                <mxCell id="wOB_5UVZatr3jlE8OmUu-14" value="&lt;span style=&quot;font-size: 14px;&quot;&gt;&lt;b&gt;Manage settings&lt;/b&gt;&lt;/span&gt;" style="ellipse;whiteSpace=wrap;html=1;fillColor=#dae8fc;strokeColor=#6c8ebf;" parent="wOB_5UVZatr3jlE8OmUu-1" vertex="1">
                    <mxGeometry x="70" y="140" width="170" height="70" as="geometry"/>
                </mxCell>
                <mxCell id="wOB_5UVZatr3jlE8OmUu-23" value="&lt;b style=&quot;border-color: var(--border-color);&quot;&gt;&lt;font style=&quot;border-color: var(--border-color); font-size: 14px;&quot;&gt;Recover password&lt;/font&gt;&lt;/b&gt;&lt;span style=&quot;font-size: 14px;&quot;&gt;&lt;b&gt;&lt;br&gt;&lt;/b&gt;&lt;/span&gt;" style="ellipse;whiteSpace=wrap;html=1;fillColor=#dae8fc;strokeColor=#6c8ebf;" parent="wOB_5UVZatr3jlE8OmUu-1" vertex="1">
                    <mxGeometry x="60" y="225" width="170" height="70" as="geometry"/>
                </mxCell>
                <mxCell id="wOB_5UVZatr3jlE8OmUu-9" value="&lt;b&gt;&lt;font style=&quot;font-size: 14px;&quot;&gt;Manage tickets&lt;/font&gt;&lt;/b&gt;" style="ellipse;whiteSpace=wrap;html=1;fillColor=#dae8fc;strokeColor=#6c8ebf;" parent="wOB_5UVZatr3jlE8OmUu-1" vertex="1">
                    <mxGeometry x="60" y="310" width="170" height="70" as="geometry"/>
                </mxCell>
                <mxCell id="wOB_5UVZatr3jlE8OmUu-12" value="&lt;b&gt;&lt;font style=&quot;font-size: 14px;&quot;&gt;Manage users&lt;/font&gt;&lt;/b&gt;" style="ellipse;whiteSpace=wrap;html=1;fillColor=#d5e8d4;strokeColor=#82b366;" parent="wOB_5UVZatr3jlE8OmUu-1" vertex="1">
                    <mxGeometry x="60" y="400" width="170" height="70" as="geometry"/>
                </mxCell>
                <mxCell id="3" style="edgeStyle=none;html=1;endArrow=none;endFill=0;" parent="1" target="wOB_5UVZatr3jlE8OmUu-12" edge="1">
                    <mxGeometry relative="1" as="geometry">
                        <mxPoint x="630" y="455" as="sourcePoint"/>
                    </mxGeometry>
                </mxCell>
                <mxCell id="5" style="edgeStyle=none;html=1;endArrow=block;endFill=0;" parent="1" source="wOB_5UVZatr3jlE8OmUu-19" edge="1">
                    <mxGeometry relative="1" as="geometry">
                        <mxPoint x="615" y="250" as="targetPoint"/>
                    </mxGeometry>
                </mxCell>
                <mxCell id="wOB_5UVZatr3jlE8OmUu-19" value="Superadmin" style="shape=umlActor;verticalLabelPosition=bottom;verticalAlign=top;html=1;outlineConnect=0;fillColor=#d5e8d4;strokeColor=#82b366;fontStyle=1;fontSize=14;" parent="1" vertex="1">
                    <mxGeometry x="600" y="420" width="30" height="60" as="geometry"/>
                </mxCell>
                <mxCell id="wOB_5UVZatr3jlE8OmUu-31" style="edgeStyle=orthogonalEdgeStyle;rounded=0;orthogonalLoop=1;jettySize=auto;html=1;entryX=-0.01;entryY=0.368;entryDx=0;entryDy=0;entryPerimeter=0;endArrow=none;endFill=0;" parent="1" source="wOB_5UVZatr3jlE8OmUu-20" target="wOB_5UVZatr3jlE8OmUu-14" edge="1">
                    <mxGeometry relative="1" as="geometry">
                        <Array as="points">
                            <mxPoint x="778" y="190"/>
                        </Array>
                    </mxGeometry>
                </mxCell>
                <mxCell id="wOB_5UVZatr3jlE8OmUu-34" style="edgeStyle=orthogonalEdgeStyle;rounded=0;orthogonalLoop=1;jettySize=auto;html=1;entryX=0;entryY=0.5;entryDx=0;entryDy=0;endArrow=none;endFill=0;" parent="1" source="wOB_5UVZatr3jlE8OmUu-20" target="wOB_5UVZatr3jlE8OmUu-23" edge="1">
                    <mxGeometry relative="1" as="geometry">
                        <Array as="points">
                            <mxPoint x="680" y="190"/>
                            <mxPoint x="680" y="280"/>
                        </Array>
                    </mxGeometry>
                </mxCell>
                <mxCell id="wOB_5UVZatr3jlE8OmUu-20" value="User" style="shape=umlActor;verticalLabelPosition=bottom;verticalAlign=top;html=1;outlineConnect=0;fillColor=#dae8fc;strokeColor=#6c8ebf;fontStyle=1;fontSize=14;" parent="1" vertex="1">
                    <mxGeometry x="600" y="160" width="30" height="60" as="geometry"/>
                </mxCell>
                <mxCell id="wOB_5UVZatr3jlE8OmUu-27" style="edgeStyle=orthogonalEdgeStyle;rounded=0;orthogonalLoop=1;jettySize=auto;html=1;endArrow=none;endFill=0;" parent="1" source="wOB_5UVZatr3jlE8OmUu-21" target="wOB_5UVZatr3jlE8OmUu-15" edge="1">
                    <mxGeometry relative="1" as="geometry"/>
                </mxCell>
                <mxCell id="wOB_5UVZatr3jlE8OmUu-21" value="Visitor" style="shape=umlActor;verticalLabelPosition=bottom;verticalAlign=top;html=1;outlineConnect=0;fillColor=#ffe6cc;strokeColor=#d79b00;fontStyle=1;fontSize=14;" parent="1" vertex="1">
                    <mxGeometry x="600" y="65" width="30" height="60" as="geometry"/>
                </mxCell>
                <mxCell id="4" style="edgeStyle=none;html=1;endArrow=none;endFill=0;" parent="1" source="wOB_5UVZatr3jlE8OmUu-9" edge="1">
                    <mxGeometry relative="1" as="geometry">
                        <mxPoint x="680" y="190" as="targetPoint"/>
                        <Array as="points">
                            <mxPoint x="720" y="360"/>
                            <mxPoint x="680" y="360"/>
                        </Array>
                    </mxGeometry>
                </mxCell>
            </root>
        </mxGraphModel>
    </diagram>
</mxfile>